# xmcd
#
# Track frame offsets: 
#        150
#        17165
#        36618
#        56454
#        72389
#        92824
#        108815
#        125698
#        141034
#        154894
#        174542
#        194727
#        207897
#        222899
#        243968
#
# Disc length: 3470 seconds
#
# Revision: 0
# Processed by: cddbd v1.5.2PL0 Copyright (c) Steve Scherf et al.
# Submitted via: ExactAudioCopy v1.0b4
#
DISCID=e00d8c0f
DTITLE=The Mannish Boys - Big Plans
DYEAR=2007
DGENRE=Blues
TTITLE0=Border Town Blues
TTITLE1=I Can't Stay Here
TTITLE2=I Get So Worried
TTITLE3=Mary Jane
TTITLE4=Carpet Bagger Blues
TTITLE5=Just To Be With You
TTITLE6=Gotta Move
TTITLE7=Why Do Things Happen To Me
TTITLE8=Groan My Blues Away
TTITLE9=Mine All Mine
TTITLE10=Young and Tender
TTITLE11=My Baby's A Good 'Un
TTITLE12=Broken Hearted Blues
TTITLE13=Walkin' Down Fillmore
TTITLE14=California Blues
EXTD=
EXTT0=
EXTT1=
EXTT2=
EXTT3=
EXTT4=
EXTT5=
EXTT6=
EXTT7=
EXTT8=
EXTT9=
EXTT10=
EXTT11=
EXTT12=
EXTT13=
EXTT14=
PLAYORDER=
